<svg xmlns="http://www.w3.org/2000/svg" width="512" height="512" viewBox="0 0 512 512" version="1.1"><path d="" stroke="none" fill="#a4d464" fill-rule="evenodd"/><path d="M 153.400 3.400 C 149.769 7.031, 148.981 11.123, 151.108 15.316 C 151.717 16.517, 158.579 23.934, 166.358 31.798 C 178.891 44.468, 180.290 46.215, 178.658 47.149 C 175.379 49.024, 163.478 59.650, 159.067 64.641 C 140.855 85.249, 130.027 111.519, 127.490 141.250 L 126.829 149 256 149 L 385.171 149 384.510 141.250 C 381.973 111.519, 371.145 85.249, 352.933 64.641 C 348.522 59.650, 336.621 49.024, 333.342 47.149 C 331.710 46.215, 333.109 44.468, 345.642 31.798 C 353.421 23.934, 360.283 16.517, 360.892 15.316 C 363.019 11.123, 362.231 7.031, 358.600 3.400 C 355.805 0.605, 354.447 -0, 350.970 -0 C 346.845 -0, 346.330 0.405, 330.120 16.398 L 313.500 32.797 308.071 30.376 C 277.727 16.846, 234.273 16.846, 203.929 30.376 L 198.500 32.797 181.880 16.398 C 165.670 0.405, 165.155 0, 161.030 0 C 157.553 0, 156.195 0.605, 153.400 3.400 M 193.898 82.270 C 184.967 88.236, 184.778 100.915, 193.519 107.582 C 196.546 109.891, 198.261 110.429, 202.600 110.429 C 211.029 110.429, 216.957 104.889, 217.695 96.324 C 218.509 86.880, 212.105 80, 202.500 80 C 198.754 80, 196.344 80.636, 193.898 82.270 M 300.898 82.270 C 291.682 88.427, 291.899 101.356, 301.337 108.402 C 305.621 111.601, 313.721 111.213, 318.481 107.582 C 330.644 98.305, 324.683 80, 309.500 80 C 305.754 80, 303.344 80.636, 300.898 82.270 M 64.500 171.159 C 55.380 174.560, 47.459 182.484, 44.039 191.627 C 42.050 196.942, 42 199.020, 42 277 C 42 355.174, 42.045 357.045, 44.054 362.414 C 46.769 369.671, 53.657 377.193, 60.797 380.700 C 68.766 384.613, 79 384.672, 87.148 380.852 C 94.340 377.480, 100.480 371.340, 103.852 364.148 L 106.500 358.500 106.500 277 L 106.500 195.500 103.865 189.880 C 100.437 182.569, 95.390 177.074, 88.816 173.496 C 84.457 171.124, 82.113 170.566, 75.512 170.328 C 71.106 170.170, 66.150 170.544, 64.500 171.159 M 127.024 277.250 C 127.040 347.089, 127.408 386.070, 128.078 389 C 129.359 394.603, 132.275 398.964, 136.832 402.090 C 140.088 404.324, 141.424 404.523, 155.121 404.821 L 169.898 405.143 170.199 446.321 C 170.540 493.024, 170.380 492.033, 179.121 501.515 C 185.278 508.195, 191.761 511.223, 201.107 511.784 C 207.822 512.187, 209.433 511.918, 214.841 509.491 C 221.967 506.293, 229.053 499.290, 232.321 492.217 C 234.431 487.648, 234.509 486.202, 234.792 446.250 L 235.083 405 256 405 L 276.917 405 277.208 446.250 C 277.491 486.202, 277.569 487.648, 279.679 492.217 C 282.947 499.290, 290.033 506.293, 297.159 509.491 C 312.647 516.442, 331.748 508.601, 339.339 492.176 C 341.426 487.661, 341.510 486.080, 341.801 446.321 L 342.102 405.143 356.879 404.821 C 370.576 404.523, 371.912 404.324, 375.168 402.090 C 379.725 398.964, 382.641 394.603, 383.922 389 C 384.592 386.070, 384.960 347.089, 384.976 277.250 L 385 170 256 170 L 127 170 127.024 277.250 M 427.882 171.331 C 418.824 174.692, 412.441 180.703, 408.101 189.954 L 405.500 195.500 405.500 277 L 405.500 358.500 408.148 364.148 C 411.520 371.340, 417.660 377.480, 424.852 380.852 C 433 384.672, 443.234 384.613, 451.203 380.700 C 458.358 377.186, 465.233 369.667, 467.963 362.368 C 470.004 356.914, 470.030 355.646, 469.767 275.667 L 469.500 194.500 466.906 189 C 463.763 182.337, 457.922 176.326, 451.369 173.009 C 445.511 170.044, 433.636 169.195, 427.882 171.331" stroke="none" fill="#a4dc64" fill-rule="evenodd"/></svg>